HIERARCHY
ROOT joint_Root
{
	OFFSET 0.0 0.0 0.0
	CHANNELS 6 Xposition Yposition Zposition Zrotation Xrotation Yrotation 
	JOINT Hips
	{
		OFFSET -17.1583 93.1646 452.98
		CHANNELS 6 Xposition Yposition Zposition Zrotation Xrotation Yrotation 
		JOINT Spine
		{
			OFFSET 15.7357 0.0 0.0
			CHANNELS 6 Xposition Yposition Zposition Zrotation Xrotation Yrotation 
			JOINT Chest
			{
				OFFSET 8.98455 -0.406207 0.0
				CHANNELS 6 Xposition Yposition Zposition Zrotation Xrotation Yrotation 
				JOINT Neck
				{
					OFFSET 16.3773 0.0 0.0
					CHANNELS 6 Xposition Yposition Zposition Zrotation Xrotation Yrotation 
					JOINT Head
					{
						OFFSET 6.45672 0.0 0.0
						CHANNELS 6 Xposition Yposition Zposition Zrotation Xrotation Yrotation 
						End Site
						{
							OFFSET 0.0 0.0 0.0
						}
					}
				}
				JOINT Shoulder_L
				{
					OFFSET 12.9942 -0.242716 4.98039
					CHANNELS 6 Xposition Yposition Zposition Zrotation Xrotation Yrotation 
					JOINT UpperArm_L
					{
						OFFSET 5.34809 0.0 0.0
						CHANNELS 6 Xposition Yposition Zposition Zrotation Xrotation Yrotation 
						JOINT LowerArm_L
						{
							OFFSET 24.3286 1.87007e-05 0.0
							CHANNELS 6 Xposition Yposition Zposition Zrotation Xrotation Yrotation 
							JOINT Hand_L
							{
								OFFSET 22.2916 0.0 0.0
								CHANNELS 6 Xposition Yposition Zposition Zrotation Xrotation Yrotation 
								End Site
								{
									OFFSET 0.0 0.0 0.0
								}
							}
						}
					}
				}
				JOINT Shoulder_R
				{
					OFFSET 12.9945 -0.242716 -4.98039
					CHANNELS 6 Xposition Yposition Zposition Zrotation Xrotation Yrotation 
					JOINT UpperArm_R
					{
						OFFSET -5.34813 0.0 0.0
						CHANNELS 6 Xposition Yposition Zposition Zrotation Xrotation Yrotation 
						JOINT LowerArm_R
						{
							OFFSET -24.3289 0.000322201 0.0
							CHANNELS 6 Xposition Yposition Zposition Zrotation Xrotation Yrotation 
							JOINT Hand_R
							{
								OFFSET -22.2915 -0.000108084 0.0
								CHANNELS 6 Xposition Yposition Zposition Zrotation Xrotation Yrotation 
								End Site
								{
									OFFSET 0.0 0.0 0.0
								}
							}
						}
					}
				}
			}
		}
		JOINT UpperLeg_L
		{
			OFFSET -2.19248 -6.46944 0.0
			CHANNELS 6 Xposition Yposition Zposition Zrotation Xrotation Yrotation 
			JOINT LowerLeg_L
			{
				OFFSET 39.0811 0.0 -1.23785e-05
				CHANNELS 6 Xposition Yposition Zposition Zrotation Xrotation Yrotation 
				JOINT Foot_L
				{
					OFFSET 40.9854 0.0 -1.26872e-05
					CHANNELS 6 Xposition Yposition Zposition Zrotation Xrotation Yrotation 
					JOINT Toes_L
					{
						OFFSET 11.7543 0.0 0.0
						CHANNELS 6 Xposition Yposition Zposition Zrotation Xrotation Yrotation 
						End Site
						{
							OFFSET 0.0 0.0 0.0
						}
					}
				}
			}
		}
		JOINT UpperLeg_R
		{
			OFFSET -2.19251 6.46944 0.0
			CHANNELS 6 Xposition Yposition Zposition Zrotation Xrotation Yrotation 
			JOINT LowerLeg_R
			{
				OFFSET -39.0811 -0.00228153 -0.0401928
				CHANNELS 6 Xposition Yposition Zposition Zrotation Xrotation Yrotation 
				JOINT Foot_R
				{
					OFFSET -40.9854 0.0 0.0
					CHANNELS 6 Xposition Yposition Zposition Zrotation Xrotation Yrotation 
					JOINT Toes_R
					{
						OFFSET -11.7543 0.0 0.0
						CHANNELS 6 Xposition Yposition Zposition Zrotation Xrotation Yrotation 
						End Site
						{
							OFFSET 0.0 0.0 0.0
						}
					}
				}
			}
		}
	}
}
MOTION
Frames:	5
Frame Time:	0.0333333
0.000000 0.000000 0.000000 0.000000 0.000000 -0.000000 -1.751880 93.304900 -3.276750 87.620300 0.529999 1.142800 15.735700 0.000005 -0.000001 87.099100 87.838100 -86.006200 8.984550 -0.406207 -0.000000 -3.443770 -0.325573 2.176440 16.377300 -0.000001 -0.000001 -0.572656 2.212950 -1.439730 6.456720 -0.000001 -0.000000 2.009420 2.036090 -0.463742 12.994200 -0.242716 4.980390 -92.698500 8.418200 -72.154200 5.348090 -0.000007 -0.000001 -68.616500 10.107500 -4.783440 24.328600 0.000019 0.000005 4.191700 28.921100 -8.618920 22.291600 -0.000001 0.000005 -15.545400 5.143980 4.079840 12.994500 -0.242716 -4.980390 88.781300 4.407110 -74.525300 -5.348130 -0.000001 -0.000004 -71.952000 19.668000 -5.963540 -24.328900 0.000322 -0.000009 0.161026 1.895330 -4.898180 -22.291500 -0.000108 -0.000004 -9.536820 5.146700 4.023300 -2.192480 -6.469440 -0.000000 -172.260000 -5.567410 -3.630070 39.081100 -0.000007 -0.000012 0.015597 -0.053077 16.376100 40.985400 -0.000006 -0.000013 -2.207720 12.388100 -67.696200 11.754300 -0.000000 0.000003 -0.000154 0.170185 -9.674070 -2.192510 6.469440 -0.000001 179.411000 7.111760 178.224000 -39.081100 -0.002282 -0.040193 0.052527 -0.202801 13.635200 -40.985400 0.000008 0.000006 -3.120030 3.305630 -67.801400 -11.754300 -0.000006 -0.000006 -0.008838 0.262405 -5.914830
0.000000 0.000000 0.000000 0.000000 0.000000 -0.000000 -1.765950 93.307200 -2.870240 87.616400 0.511825 0.741528 15.735700 0.000005 -0.000001 85.274400 88.080800 -84.204400 8.984550 -0.406207 -0.000000 -3.935920 -0.425223 2.126390 16.377300 -0.000001 -0.000001 -1.570710 2.193130 -1.344250 6.456720 -0.000001 -0.000000 1.580970 2.164800 -0.688006 12.994200 -0.242716 4.980390 -92.625500 8.164570 -72.105200 5.348090 -0.000007 -0.000001 -65.462700 5.947030 -7.121490 24.328600 0.000019 0.000005 2.911530 31.875100 -5.502380 22.291600 -0.000001 0.000005 -17.934600 5.173370 3.378220 12.994500 -0.242716 -4.980390 88.893300 3.911740 -74.188700 -5.348130 -0.000001 -0.000004 -70.108200 15.886500 -8.300690 -24.328900 0.000322 -0.000009 0.133233 3.857920 -1.998850 -22.291500 -0.000108 -0.000004 -11.535400 5.114720 4.776570 -2.192480 -6.469440 -0.000000 -172.232000 -5.935910 -3.596470 39.081100 -0.000007 -0.000012 0.014447 -0.050097 16.087000 40.985400 -0.000006 -0.000013 -2.182920 12.657200 -67.817000 11.754300 -0.000000 0.000003 -0.000258 0.171855 -9.606210 -2.192510 6.469440 -0.000001 179.389000 7.247120 178.233000 -39.081100 -0.002282 -0.040193 0.047704 -0.186889 13.355800 -40.985400 0.000008 0.000006 -3.438740 3.524660 -67.810700 -11.754300 -0.000006 -0.000006 -0.009235 0.265494 -5.788610
0.000000 0.000000 0.000000 0.000000 0.000000 -0.000000 -1.744170 93.298000 -2.340700 87.604000 0.455905 0.305583 15.735700 0.000005 -0.000001 83.174300 88.388200 -82.148100 8.984550 -0.406207 -0.000000 -4.560100 -0.493124 2.034280 16.377300 -0.000001 -0.000001 -2.587710 2.137820 -1.245200 6.456720 -0.000001 -0.000000 1.046380 2.308550 -0.746474 12.994200 -0.242716 4.980390 -92.457700 7.548730 -71.906900 5.348090 -0.000007 -0.000001 -61.579300 0.140967 -9.764150 24.328600 0.000019 0.000005 1.741940 34.305200 -3.088860 22.291600 -0.000001 0.000005 -19.035500 5.150670 3.927820 12.994500 -0.242716 -4.980390 89.057300 3.238900 -73.761900 -5.348130 -0.000001 -0.000004 -66.947800 11.904600 -11.090700 -24.328900 0.000322 -0.000009 -0.001197 5.461740 0.000018 -22.291500 -0.000108 -0.000004 -14.520000 5.090920 5.323810 -2.192480 -6.469440 -0.000000 -172.207000 -6.400070 -3.521770 39.081100 -0.000007 -0.000012 0.011421 -0.040329 15.812300 40.985400 -0.000006 -0.000013 -2.120380 12.961800 -67.946800 11.754300 -0.000000 0.000003 -0.000501 0.175675 -9.451060 -2.192510 6.469440 -0.000001 179.331000 7.569060 178.330000 -39.081100 -0.002282 -0.040193 0.042514 -0.169780 12.994700 -40.985400 0.000008 0.000006 -3.705910 3.937330 -67.784800 -11.754300 -0.000006 -0.000006 -0.009036 0.263955 -5.851530
0.000000 0.000000 0.000000 0.000000 0.000000 -0.000000 -1.687570 93.277600 -1.689740 87.668300 0.448416 0.005087 15.735700 0.000005 -0.000001 80.782400 88.692900 -79.853200 8.984550 -0.406207 -0.000000 -5.180810 -0.523202 1.836400 16.377300 -0.000001 -0.000001 -3.598250 1.977950 -1.007890 6.456720 -0.000001 -0.000000 0.482750 2.342920 -0.895606 12.994200 -0.242716 4.980390 -92.276300 6.872170 -71.623000 5.348090 -0.000007 -0.000001 -56.356100 -5.291240 -12.590500 24.328600 0.000019 0.000005 1.454610 35.588500 -2.498370 22.291600 -0.000001 0.000005 -19.136100 5.133420 4.337360 12.994500 -0.242716 -4.980390 89.295100 2.367590 -73.414000 -5.348130 -0.000001 -0.000004 -62.761500 6.595250 -14.076700 -24.328900 0.000322 -0.000009 -0.001098 6.366840 0.000022 -22.291500 -0.000108 -0.000004 -16.126100 5.067070 5.858350 -2.192480 -6.469440 -0.000000 -172.272000 -6.781090 -3.215590 39.081100 -0.000007 -0.000012 0.008213 -0.029740 15.438100 40.985400 -0.000006 -0.000013 -2.032450 13.233900 -67.942700 11.754300 -0.000000 0.000003 -0.001077 0.184130 -9.107500 -2.192510 6.469440 -0.000001 179.138000 8.162360 178.677000 -39.081100 -0.002282 -0.040193 0.037701 -0.154070 12.574500 -40.985400 0.000008 0.000006 -3.775070 4.550960 -67.711200 -11.754300 -0.000006 -0.000006 -0.009613 0.268391 -5.670170
0.000000 0.000000 0.000000 0.000000 0.000000 -0.000000 -1.614390 93.248200 -0.917743 87.735100 0.481040 -0.116274 15.735700 0.000005 -0.000001 80.301700 88.996100 -79.519000 8.984550 -0.406207 -0.000000 -5.783570 -0.430261 1.545590 16.377300 -0.000001 -0.000001 -4.560160 1.721580 -0.762096 6.456720 -0.000001 -0.000000 -0.133615 2.138990 -0.816103 12.994200 -0.242716 4.980390 -92.024500 6.001360 -71.319700 5.348090 -0.000007 -0.000001 -50.476700 -11.153900 -15.907900 24.328600 0.000019 0.000005 1.329120 34.814700 -2.327090 22.291600 -0.000001 0.000005 -17.575600 5.124310 4.548890 12.994500 -0.242716 -4.980390 89.540400 1.511290 -73.082400 -5.348130 -0.000001 -0.000004 -57.751000 0.221330 -16.892800 -24.328900 0.000322 -0.000009 -0.001028 6.288100 0.000022 -22.291500 -0.000108 -0.000004 -14.366400 5.062020 5.973130 -2.192480 -6.469440 -0.000000 -172.338000 -6.830650 -2.585380 39.081100 -0.000007 -0.000012 0.006870 -0.025663 14.987200 40.985400 -0.000006 -0.000013 -1.962670 13.263500 -68.074500 11.754300 -0.000000 0.000003 -0.001449 0.189225 -8.900410 -2.192510 6.469440 -0.000001 178.883000 8.887970 179.367000 -39.081100 -0.002282 -0.040193 0.031402 -0.131480 12.049900 -40.985400 0.000008 0.000006 -3.847820 5.238230 -67.771200 -11.754300 -0.000006 -0.000006 -0.010445 0.274603 -5.416080
